# xmcd CD database file
#
# Track frame offsets:
#	150
#	20975
#	35135
#	73245
#	95637
#	120780
#	140085
#	169382
#	194287
#	216560
#	251320
#	273035
#	298250
#
# Disc length: 4284 seconds
#
# Revision: 0
# Processed by: cddbd v1.4PL0 Copyright (c) Steve Scherf et al.
# Submitted via: Feurio! 1.66 - http://www.feurio.com
#
DISCID=d410ba0d
DTITLE=Klaus Müller and Alex Kühne - Boogie Busters
DYEAR=1900
DGENRE=blues
TTITLE0=Chikago Breakdown
TTITLE1=Cherry Red
TTITLE2=Blue Note
TTITLE3=The sun is gonna shine
TTITLE4=How do you feel
TTITLE5=Hound Dog
TTITLE6=Early in the morning
TTITLE7=Boogie Woogie Stomp
TTITLE8=No dog no more
TTITLE9=You don't know me
TTITLE10=Keep your hands off her
TTITLE11=Mojo Boogie
TTITLE12=Bye, bye Baby
EXTD=
EXTT0=
EXTT1=
EXTT2=
EXTT3=
EXTT4=
EXTT5=
EXTT6=
EXTT7=
EXTT8=
EXTT9=
EXTT10=
EXTT11=
EXTT12=
PLAYORDER=
